<svg xmlns="http://www.w3.org/2000/svg" width="20" height="20" aria-hidden="true"><path d="M10 9.98c-.94 0-1.74-.32-2.38-.96a3.23 3.23 0 0 1-.95-2.37c0-.95.32-1.74.96-2.38A3.23 3.23 0 0 1 10 3.31c.94 0 1.74.32 2.38.96.63.64.95 1.43.95 2.38 0 .94-.32 1.73-.96 2.37-.63.64-1.43.96-2.37.96Zm-4.98 6.69c-.49 0-.9-.17-1.25-.5-.33-.35-.5-.77-.5-1.25v-.65a2.38 2.38 0 0 1 1.35-2.19A12.8 12.8 0 0 1 10 10.83c.92 0 1.83.11 2.75.34.92.2 1.8.51 2.63.91a2.38 2.38 0 0 1 1.35 2.2v.64c0 .48-.17.9-.52 1.25-.34.33-.74.5-1.23.5H5.02Z" fill="#fff"></path></svg>